<svg xmlns="http://www.w3.org/2000/svg" viewBox="0 0 64 64" id="priority"><g data-name="Layer 1"><path d="M55 51H9a3.00328 3.00328 0 0 0-3 3v5a3.00328 3.00328 0 0 0 3 3H55a3.00328 3.00328 0 0 0 3-3V54A3.00328 3.00328 0 0 0 55 51zm1 8a1.001 1.001 0 0 1-1 1H9a1.001 1.001 0 0 1-1-1V54a1.001 1.001 0 0 1 1-1H55a1.001 1.001 0 0 1 1 1zM55 31H9a3.00328 3.00328 0 0 0-3 3V45a3.00328 3.00328 0 0 0 3 3H55a3.00328 3.00328 0 0 0 3-3V34A3.00328 3.00328 0 0 0 55 31zm1 14a1.001 1.001 0 0 1-1 1H9a1.001 1.001 0 0 1-1-1V34a1.001 1.001 0 0 1 1-1H55a1.001 1.001 0 0 1 1 1zM55 2H9A3.00328 3.00328 0 0 0 6 5V25a3.00328 3.00328 0 0 0 3 3H55a3.00328 3.00328 0 0 0 3-3V5A3.00328 3.00328 0 0 0 55 2zm1 23a1.001 1.001 0 0 1-1 1H9a1.001 1.001 0 0 1-1-1V5A1.001 1.001 0 0 1 9 4H55a1.001 1.001 0 0 1 1 1z"></path><path d="M35.87891,8.62891,29.5,15.00781l-1.37891-1.3789A2.99994,2.99994,0,0,0,23.879,17.87116l3.49993,3.49993a3.0134,3.0134,0,0,0,4.24218,0l8.5-8.5A2.99986,2.99986,0,0,0,35.87891,8.62891ZM38.707,11.457l-8.5,8.5a1.02545,1.02545,0,0,1-1.41406,0l-3.5-3.5A.99989.99989,0,0,1,26.707,15.043L28.793,17.12891a.99964.99964,0,0,0,1.41406,0L37.293,10.043A1.00009,1.00009,0,0,1,38.707,11.457Z"></path></g></svg>